<?xml version="1.0" encoding="utf-8"?>
<!-- Generator: Adobe Illustrator 18.1.1, SVG Export Plug-In . SVG Version: 6.00 Build 0)  -->
<svg version="1.1" id="Layer_1" xmlns="http://www.w3.org/2000/svg" xmlns:xlink="http://www.w3.org/1999/xlink" x="0px" y="0px"
	 viewBox="-15 120.9 255.6 49.1" enable-background="new -15 120.9 255.6 49.1" xml:space="preserve">
<g>
	<path fill="#FFFFFF" d="M16,123.2c-12.4,0-22.5,10.1-22.5,22.5S3.6,168.2,16,168.2s22.5-10.1,22.5-22.5S28.4,123.2,16,123.2z
		 M7.4,147c0,1.4-0.4,2.5-1.1,3.4c-0.4,0.5-1,0.9-1.6,1.2c-0.7,0.3-1.3,0.5-2,0.5c-1.4,0-2.5-0.5-3.5-1.4c-0.9-0.9-1.4-2-1.4-3.4
		c0-1.3,0.5-2.4,1.4-3.4c0.9-0.9,2-1.4,3.3-1.4c0.2,0,0.5,0,0.9,0.1v3.8c-0.3-0.2-0.6-0.3-0.8-0.3c-0.4,0-0.7,0.1-0.9,0.4
		c-0.2,0.3-0.4,0.6-0.4,0.9c0,0.4,0.1,0.7,0.4,0.9c0.3,0.3,0.6,0.4,1,0.4c0.9,0,1.3-0.6,1.3-1.8v-7.5h3.4V147z M13.2,140.3l-0.3,0
		c-0.5,0-0.8,0.1-0.9,0.2c-0.1,0.1-0.2,0.4-0.2,0.8v0.2v1.9c0,0.6-0.1,1.1-0.2,1.4c-0.1,0.3-0.4,0.6-0.7,0.9
		c0.3,0.3,0.5,0.6,0.7,0.9c0.1,0.3,0.2,0.8,0.2,1.4v2v0.2c0,0.5,0.1,0.7,0.2,0.8c0.1,0.1,0.5,0.2,1,0.2h0.2v2.4c-0.2,0-0.3,0-0.5,0
		l-0.9,0.1l-0.5,0c-0.7-0.1-1.2-0.3-1.5-0.7c-0.3-0.4-0.4-1-0.4-1.9v-2.6c0-0.5-0.1-0.9-0.2-1.1c-0.1-0.2-0.3-0.4-0.6-0.5v-2.5
		c0.4-0.1,0.7-0.4,0.7-0.8l0-0.4c0-0.1,0-0.1,0-0.1v-2.5c0-1,0.2-1.7,0.5-2.1s1-0.6,1.8-0.6l0.4,0l0.6,0l0.5,0V140.3z M27.1,150.6
		h-3.5v-5.1c0-0.4,0-0.7-0.1-0.8s-0.2-0.2-0.5-0.2c-0.4,0-0.6,0.4-0.6,1.1v5.1h-3.6v-5.1c0-0.4,0-0.7-0.1-0.8
		c-0.1-0.2-0.2-0.2-0.5-0.2c-0.4,0-0.6,0.4-0.6,1.1v5.1H14v-5.9c0-1.1,0.4-2,1.1-2.7c0.7-0.8,1.6-1.1,2.6-1.1c1.1,0,2,0.5,2.8,1.3
		c0.9-0.9,1.9-1.3,2.8-1.3c1.2,0,2.1,0.4,2.9,1.3c0.6,0.7,0.8,1.7,0.8,3V150.6z M31.9,147.9l0,0.4c0,0.1,0,0.1,0,0.1v2.5
		c0,1-0.2,1.7-0.5,2.1c-0.3,0.4-1,0.6-1.8,0.6l-0.4,0l-0.6,0l-0.5,0v-2.4l0.3,0c0.5,0,0.8-0.1,0.9-0.2c0.1-0.1,0.2-0.4,0.2-0.8V150
		v-1.9c0-0.6,0.1-1.1,0.2-1.4c0.1-0.3,0.3-0.6,0.7-1c-0.3-0.3-0.5-0.6-0.7-0.9c-0.1-0.3-0.2-0.8-0.2-1.4v-2v-0.2
		c0-0.5-0.1-0.7-0.2-0.8c-0.1-0.1-0.5-0.2-1-0.2l-0.2,0v-2.4c0.2,0,0.3,0,0.5,0l0.9-0.1l0.5,0c1.3,0,2,0.9,2,2.6v2.6
		c0,0.5,0.1,0.9,0.2,1.1c0.1,0.2,0.3,0.4,0.6,0.5v2.5C32.2,147.2,31.9,147.5,31.9,147.9z"/>
	<g>
		<path fill="#FFFFFF" d="M52.2,151.3v-14.2h5.3c1.1,0,2.2,0.1,3.2,0.3s1.9,0.6,2.7,1.1c0.8,0.5,1.4,1.3,1.9,2.2s0.7,2,0.7,3.4
			c0,1.2-0.2,2.3-0.7,3.2c-0.4,0.9-1,1.7-1.8,2.2c-0.7,0.6-1.6,1-2.6,1.3c-1,0.3-2,0.4-3,0.4H52.2z M56.8,141.2v6h0.9
			c1.1,0,2-0.2,2.6-0.7c0.6-0.5,0.9-1.3,0.9-2.4c0-0.9-0.3-1.6-0.9-2.1s-1.4-0.8-2.4-0.8H56.8z"/>
		<path fill="#FFFFFF" d="M78.7,146.1c0,0.2,0,0.4,0,0.5s0,0.3,0,0.5h-7.1c0,0.2,0.1,0.4,0.2,0.5s0.3,0.3,0.4,0.4
			c0.2,0.1,0.4,0.2,0.6,0.2c0.2,0.1,0.4,0.1,0.6,0.1c0.4,0,0.8-0.1,1.1-0.2c0.3-0.2,0.5-0.3,0.6-0.5l3.3,1.7c-0.5,0.8-1.1,1.4-2,1.8
			c-0.9,0.4-1.9,0.7-3.1,0.7c-0.8,0-1.5-0.1-2.2-0.4c-0.7-0.2-1.4-0.6-1.9-1.1c-0.6-0.5-1-1.1-1.3-1.8c-0.3-0.7-0.5-1.5-0.5-2.5
			c0-0.9,0.2-1.7,0.5-2.4c0.3-0.7,0.7-1.3,1.2-1.8c0.5-0.5,1.1-0.9,1.9-1.1s1.5-0.4,2.3-0.4c0.8,0,1.6,0.1,2.3,0.4
			c0.7,0.3,1.3,0.7,1.8,1.2c0.5,0.5,0.9,1.1,1.1,1.8C78.5,144.5,78.7,145.3,78.7,146.1z M74.7,144.6c0-0.4-0.1-0.7-0.4-0.9
			s-0.6-0.4-1.1-0.4c-0.5,0-0.9,0.1-1.2,0.4c-0.3,0.3-0.4,0.6-0.5,0.9H74.7z"/>
		<path fill="#FFFFFF" d="M88.9,147.9c0,0.7-0.1,1.3-0.4,1.8c-0.3,0.5-0.7,0.9-1.1,1.1c-0.5,0.3-1,0.5-1.5,0.6s-1.1,0.2-1.6,0.2
			c-0.9,0-1.8-0.1-2.7-0.4c-0.9-0.3-1.6-0.6-2.3-1.1l2.3-2.6c0.3,0.3,0.7,0.5,1.1,0.7c0.4,0.2,0.8,0.3,1.2,0.3c0.2,0,0.3,0,0.4-0.1
			c0.1-0.1,0.2-0.2,0.2-0.3c0-0.2-0.1-0.3-0.4-0.4c-0.2-0.1-0.7-0.2-1.3-0.4c-0.3-0.1-0.7-0.2-1-0.3c-0.3-0.2-0.7-0.4-1-0.6
			c-0.3-0.3-0.5-0.6-0.7-0.9c-0.2-0.4-0.3-0.8-0.3-1.3c0-0.7,0.2-1.3,0.5-1.7c0.3-0.5,0.7-0.9,1.1-1.2s1-0.5,1.5-0.7s1-0.2,1.5-0.2
			c0.8,0,1.6,0.1,2.4,0.4c0.8,0.2,1.5,0.6,2.2,1l-2.2,2.6c-0.3-0.2-0.7-0.4-1-0.5c-0.3-0.1-0.7-0.2-1-0.2c-0.2,0-0.4,0-0.6,0.1
			c-0.1,0.1-0.2,0.2-0.2,0.4c0,0.1,0.1,0.2,0.2,0.3c0.2,0.1,0.5,0.2,1.1,0.3c0.4,0.1,0.8,0.2,1.2,0.4s0.7,0.4,1.1,0.6
			c0.3,0.3,0.6,0.6,0.7,1C88.8,147,88.9,147.4,88.9,147.9z"/>
		<path fill="#FFFFFF" d="M90.5,137.7c0-0.3,0.1-0.6,0.2-0.9c0.1-0.3,0.3-0.5,0.5-0.8c0.2-0.2,0.5-0.4,0.8-0.5
			c0.3-0.1,0.6-0.2,0.9-0.2c0.3,0,0.6,0.1,0.9,0.2c0.3,0.1,0.5,0.3,0.8,0.5c0.2,0.2,0.4,0.5,0.5,0.8c0.1,0.3,0.2,0.6,0.2,0.9
			c0,0.3-0.1,0.6-0.2,0.9s-0.3,0.5-0.5,0.7c-0.2,0.2-0.5,0.4-0.8,0.5c-0.3,0.1-0.6,0.2-0.9,0.2c-0.3,0-0.6-0.1-0.9-0.2
			c-0.3-0.1-0.5-0.3-0.8-0.5c-0.2-0.2-0.4-0.5-0.5-0.7C90.6,138.4,90.5,138.1,90.5,137.7z M90.6,140.8h4.6v10.5h-4.6V140.8z"/>
		<path fill="#FFFFFF" d="M96.9,146c0-0.7,0.1-1.3,0.3-2c0.2-0.7,0.5-1.2,0.9-1.8c0.4-0.5,0.9-0.9,1.5-1.3c0.6-0.3,1.3-0.5,2.1-0.5
			c0.6,0,1.1,0.1,1.6,0.3c0.5,0.2,1,0.6,1.3,1h0.1v-1.1h4.3v9.4c0,1.1-0.2,2.1-0.6,2.9c-0.4,0.8-0.9,1.4-1.5,1.8s-1.3,0.8-2.1,0.9
			c-0.8,0.2-1.6,0.3-2.4,0.3c-1,0-2-0.1-3-0.4s-1.9-0.6-2.6-1.2l2-3.1c0.5,0.4,1,0.7,1.6,0.8c0.6,0.2,1.1,0.3,1.6,0.3
			c0.3,0,0.6,0,1-0.1c0.3-0.1,0.6-0.2,0.8-0.4c0.2-0.2,0.4-0.4,0.5-0.6c0.1-0.2,0.2-0.5,0.2-0.9v-0.5h-0.1c-0.3,0.3-0.6,0.6-1.1,0.8
			s-1.1,0.3-1.7,0.3c-0.8,0-1.5-0.1-2.1-0.4c-0.6-0.3-1.1-0.7-1.5-1.2c-0.4-0.5-0.7-1-0.9-1.7C97,147.4,96.9,146.7,96.9,146z
			 M101.2,146c0,0.5,0.1,0.9,0.4,1.3s0.7,0.5,1.3,0.5c0.5,0,1-0.2,1.3-0.5c0.3-0.3,0.5-0.8,0.5-1.3c0-0.5-0.2-0.9-0.5-1.2
			c-0.3-0.3-0.8-0.5-1.3-0.5c-0.6,0-1,0.2-1.3,0.5S101.2,145.5,101.2,146z"/>
		<path fill="#FFFFFF" d="M111.3,140.8h4.5v1.2h0c0.3-0.4,0.7-0.7,1.2-1c0.5-0.3,1.1-0.4,1.8-0.4c0.7,0,1.3,0.1,1.8,0.4
			c0.5,0.3,0.9,0.6,1.2,1c0.3,0.4,0.5,0.9,0.6,1.4c0.1,0.5,0.2,1,0.2,1.6v6.4h-4.6v-5.6c0-0.5-0.1-0.9-0.2-1.1
			c-0.2-0.2-0.4-0.3-0.8-0.3c-0.3,0-0.6,0.1-0.8,0.4c-0.2,0.2-0.3,0.6-0.3,1.1v5.6h-4.6V140.8z"/>
		<path fill="#FFFFFF" d="M134.1,143.3l0.2,8h-4.4v-14.2h6.2l2.6,7.6h0.1l2.2-7.6h6.4v14.2h-4.6l0.1-8l-0.1,0l-2.6,8h-3.4
			L134.1,143.3L134.1,143.3z"/>
		<path fill="#FFFFFF" d="M155.3,144.6c0-0.3-0.1-0.6-0.3-0.7c-0.2-0.2-0.5-0.2-0.9-0.2c-0.4,0-0.8,0.1-1.2,0.3
			c-0.4,0.2-0.7,0.4-1,0.6l-2.3-2.3c0.6-0.6,1.4-1.1,2.3-1.4s1.8-0.5,2.7-0.5c1,0,1.8,0.1,2.5,0.4c0.7,0.3,1.2,0.7,1.5,1.2
			s0.6,1.1,0.8,1.7s0.2,1.3,0.2,2.1v5.5h-4.2v-0.8h0c-0.3,0.4-0.6,0.7-1.1,0.9c-0.5,0.2-1,0.3-1.4,0.3c-0.4,0-0.8-0.1-1.3-0.2
			c-0.4-0.1-0.8-0.3-1.2-0.6c-0.4-0.3-0.6-0.6-0.9-1c-0.2-0.4-0.3-1-0.3-1.6c0-0.7,0.2-1.3,0.6-1.8s0.9-0.8,1.5-1.1
			c0.6-0.3,1.2-0.4,2-0.5C153.9,144.7,154.6,144.6,155.3,144.6L155.3,144.6z M155.4,146.9c-0.7,0-1.2,0.1-1.6,0.2s-0.6,0.4-0.6,0.8
			c0,0.1,0,0.3,0.1,0.4c0.1,0.1,0.2,0.2,0.3,0.2c0.1,0.1,0.2,0.1,0.3,0.2s0.2,0,0.4,0c0.4,0,0.8-0.1,1.1-0.4s0.4-0.6,0.4-1.1v-0.4
			H155.4z"/>
		<path fill="#FFFFFF" d="M167.3,151.7c-0.9,0-1.7-0.1-2.5-0.4c-0.7-0.3-1.4-0.6-1.9-1.1s-1-1.1-1.3-1.8s-0.5-1.5-0.5-2.3
			c0-0.9,0.2-1.6,0.5-2.3c0.3-0.7,0.8-1.3,1.3-1.8c0.6-0.5,1.2-0.9,2-1.1c0.8-0.3,1.6-0.4,2.5-0.4c0.4,0,0.7,0,1.1,0.1
			c0.4,0.1,0.7,0.1,1.1,0.2c0.3,0.1,0.7,0.2,0.9,0.4c0.3,0.1,0.5,0.3,0.7,0.4l-2.3,3.3c-0.2-0.2-0.4-0.3-0.6-0.4
			c-0.3-0.1-0.5-0.1-0.8-0.1c-0.2,0-0.4,0-0.7,0.1c-0.2,0.1-0.4,0.2-0.6,0.3c-0.2,0.2-0.3,0.3-0.4,0.6c-0.1,0.2-0.2,0.5-0.2,0.8
			c0,0.3,0.1,0.5,0.2,0.8c0.1,0.2,0.2,0.4,0.4,0.5c0.2,0.1,0.4,0.2,0.6,0.3c0.2,0.1,0.4,0.1,0.7,0.1c0.3,0,0.5,0,0.8-0.2
			c0.3-0.1,0.5-0.2,0.6-0.4l2.3,3.2c-0.4,0.3-1,0.6-1.7,0.9C168.8,151.6,168.1,151.7,167.3,151.7z"/>
		<path fill="#FFFFFF" d="M179.6,140.5c0.7,0,1.3,0.1,1.8,0.4c0.5,0.3,0.9,0.6,1.2,1c0.3,0.4,0.5,0.9,0.6,1.4c0.1,0.5,0.2,1,0.2,1.6
			v6.4h-4.6v-5.6c0-0.5-0.1-0.9-0.2-1.1c-0.2-0.2-0.4-0.3-0.8-0.3c-0.3,0-0.5,0.1-0.7,0.3c-0.2,0.2-0.3,0.6-0.3,1.1v5.6h-4.6v-15.1
			h4.6v5.8h0c0.3-0.4,0.6-0.7,1.1-1C178.4,140.6,179,140.5,179.6,140.5z"/>
		<path fill="#FFFFFF" d="M185.4,137.7c0-0.3,0.1-0.6,0.2-0.9c0.1-0.3,0.3-0.5,0.5-0.8c0.2-0.2,0.5-0.4,0.8-0.5
			c0.3-0.1,0.6-0.2,0.9-0.2c0.3,0,0.6,0.1,0.9,0.2c0.3,0.1,0.5,0.3,0.8,0.5c0.2,0.2,0.4,0.5,0.5,0.8c0.1,0.3,0.2,0.6,0.2,0.9
			c0,0.3-0.1,0.6-0.2,0.9s-0.3,0.5-0.5,0.7c-0.2,0.2-0.5,0.4-0.8,0.5c-0.3,0.1-0.6,0.2-0.9,0.2c-0.3,0-0.6-0.1-0.9-0.2
			c-0.3-0.1-0.6-0.3-0.8-0.5c-0.2-0.2-0.4-0.5-0.5-0.7C185.4,138.4,185.4,138.1,185.4,137.7z M185.4,140.8h4.6v10.5h-4.6V140.8z"/>
		<path fill="#FFFFFF" d="M192.2,140.8h4.5v1.2h0c0.3-0.4,0.7-0.7,1.2-1c0.5-0.3,1.1-0.4,1.8-0.4c0.7,0,1.3,0.1,1.8,0.4
			c0.5,0.3,0.9,0.6,1.2,1c0.3,0.4,0.5,0.9,0.6,1.4c0.1,0.5,0.2,1,0.2,1.6v6.4h-4.6v-5.6c0-0.5-0.1-0.9-0.2-1.1
			c-0.2-0.2-0.4-0.3-0.8-0.3c-0.3,0-0.6,0.1-0.8,0.4s-0.3,0.6-0.3,1.1v5.6h-4.6V140.8z"/>
		<path fill="#FFFFFF" d="M216.5,146.1c0,0.2,0,0.4,0,0.5c0,0.2,0,0.3,0,0.5h-7.1c0,0.2,0.1,0.4,0.2,0.5c0.1,0.1,0.3,0.3,0.4,0.4
			c0.2,0.1,0.4,0.2,0.6,0.2c0.2,0.1,0.4,0.1,0.6,0.1c0.4,0,0.8-0.1,1.1-0.2c0.3-0.2,0.5-0.3,0.7-0.5l3.3,1.7c-0.5,0.8-1.1,1.4-2,1.8
			c-0.9,0.4-1.9,0.7-3.1,0.7c-0.8,0-1.5-0.1-2.2-0.4s-1.4-0.6-1.9-1.1c-0.6-0.5-1-1.1-1.3-1.8s-0.5-1.5-0.5-2.5
			c0-0.9,0.2-1.7,0.5-2.4c0.3-0.7,0.7-1.3,1.2-1.8c0.5-0.5,1.1-0.9,1.9-1.1c0.7-0.3,1.5-0.4,2.3-0.4c0.8,0,1.6,0.1,2.3,0.4
			c0.7,0.3,1.3,0.7,1.8,1.2c0.5,0.5,0.9,1.1,1.1,1.8S216.5,145.3,216.5,146.1z M212.5,144.6c0-0.4-0.1-0.7-0.4-0.9
			c-0.3-0.2-0.6-0.4-1.1-0.4c-0.5,0-0.9,0.1-1.2,0.4c-0.3,0.3-0.4,0.6-0.5,0.9H212.5z"/>
		<path fill="#FFFFFF" d="M226.7,147.9c0,0.7-0.1,1.3-0.4,1.8c-0.3,0.5-0.7,0.9-1.1,1.1c-0.5,0.3-1,0.5-1.5,0.6s-1.1,0.2-1.6,0.2
			c-0.9,0-1.8-0.1-2.7-0.4s-1.6-0.6-2.3-1.1l2.3-2.6c0.3,0.3,0.7,0.5,1.1,0.7c0.4,0.2,0.9,0.3,1.2,0.3c0.2,0,0.3,0,0.5-0.1
			c0.1-0.1,0.2-0.2,0.2-0.3c0-0.2-0.1-0.3-0.4-0.4c-0.2-0.1-0.7-0.2-1.3-0.4c-0.3-0.1-0.7-0.2-1-0.3s-0.7-0.4-1-0.6
			c-0.3-0.3-0.5-0.6-0.7-0.9c-0.2-0.4-0.3-0.8-0.3-1.3c0-0.7,0.2-1.3,0.5-1.7c0.3-0.5,0.7-0.9,1.1-1.2s1-0.5,1.5-0.7
			s1.1-0.2,1.5-0.2c0.8,0,1.6,0.1,2.4,0.4c0.8,0.2,1.5,0.6,2.2,1l-2.2,2.6c-0.3-0.2-0.7-0.4-1-0.5c-0.3-0.1-0.7-0.2-1-0.2
			c-0.2,0-0.4,0-0.6,0.1c-0.1,0.1-0.2,0.2-0.2,0.4c0,0.1,0.1,0.2,0.2,0.3s0.5,0.2,1.1,0.3c0.4,0.1,0.8,0.2,1.2,0.4
			c0.4,0.2,0.7,0.4,1.1,0.6c0.3,0.3,0.6,0.6,0.7,1C226.6,147,226.7,147.4,226.7,147.9z"/>
	</g>
</g>
</svg>
